<?xml version="1.0" encoding="UTF-8" standalone="no"?>
<svg
   xmlns:dc="http://purl.org/dc/elements/1.1/"
   xmlns:cc="http://creativecommons.org/ns#"
   xmlns:rdf="http://www.w3.org/1999/02/22-rdf-syntax-ns#"
   xmlns:svg="http://www.w3.org/2000/svg"
   xmlns="http://www.w3.org/2000/svg"
   xmlns:xlink="http://www.w3.org/1999/xlink"
   xmlns:sodipodi="http://sodipodi.sourceforge.net/DTD/sodipodi-0.dtd"
   xmlns:inkscape="http://www.inkscape.org/namespaces/inkscape"
   version="1.1"
   width="32"
   height="32"
   id="svg3194"
   inkscape:version="0.91 r13725"
   sodipodi:docname="com.github.mdh34.quickDocs.svg">
  <sodipodi:namedview
     pagecolor="#ffffff"
     bordercolor="#666666"
     borderopacity="1"
     objecttolerance="10"
     gridtolerance="10"
     guidetolerance="10"
     inkscape:pageopacity="0"
     inkscape:pageshadow="2"
     inkscape:window-width="1920"
     inkscape:window-height="1017"
     id="namedview2178"
     showgrid="true"
     inkscape:zoom="1"
     inkscape:cx="11.026773"
     inkscape:cy="-74.981613"
     inkscape:window-x="0"
     inkscape:window-y="30"
     inkscape:window-maximized="1"
     inkscape:current-layer="svg3194">
    <inkscape:grid
       type="xygrid"
       id="grid4333"
       empspacing="4"
       enabled="false" />
    <inkscape:grid
       type="xygrid"
       id="grid4335"
       spacingx="0.5"
       spacingy="0.5"
       empspacing="2"
       color="#ff3fff"
       opacity="0.1254902"
       empcolor="#3fffff"
       empopacity="0.1254902"
       enabled="false" />
  </sodipodi:namedview>
  <defs
     id="defs3196">
    <linearGradient
       x1="23.99999"
       y1="14.915504"
       x2="23.99999"
       y2="32.595779"
       id="linearGradient3066"
       xlink:href="#linearGradient3195"
       gradientUnits="userSpaceOnUse"
       gradientTransform="matrix(0.502671,0,0,0.64629877,3.711822,0.79617735)" />
    <linearGradient
       id="linearGradient3195">
      <stop
         id="stop3197"
         style="stop-color:#ffffff;stop-opacity:1"
         offset="0" />
      <stop
         id="stop3199"
         style="stop-color:#ffffff;stop-opacity:0.23529412"
         offset="0.12291458" />
      <stop
         id="stop3201"
         style="stop-color:#ffffff;stop-opacity:0.15686275"
         offset="0.93706012" />
      <stop
         id="stop3203"
         style="stop-color:#ffffff;stop-opacity:0.39215687"
         offset="1" />
    </linearGradient>
    <radialGradient
       cx="10.90426"
       cy="8.4497671"
       r="19.99999"
       fx="10.90426"
       fy="8.4497671"
       id="radialGradient3069"
       xlink:href="#linearGradient2867-449-88-871-390-598-476-591-434-148-57-177-641-289-620-227-114-444-680-744-8-7"
       gradientUnits="userSpaceOnUse"
       gradientTransform="matrix(0,0.96917483,-0.82965977,0,24.014205,-1.7852207)" />
    <linearGradient
       id="linearGradient2867-449-88-871-390-598-476-591-434-148-57-177-641-289-620-227-114-444-680-744-8-7">
      <stop
         id="stop5430-8-6"
         style="stop-color:#5f5f5f;stop-opacity:1"
         offset="0" />
      <stop
         id="stop5432-3-5"
         style="stop-color:#4f4f4f;stop-opacity:1"
         offset="0.26238" />
      <stop
         id="stop5434-1-6"
         style="stop-color:#3b3b3b;stop-opacity:1"
         offset="0.704952" />
      <stop
         id="stop5436-8-9"
         style="stop-color:#2b2b2b;stop-opacity:1"
         offset="1" />
    </linearGradient>
    <linearGradient
       x1="24"
       y1="44"
       x2="24"
       y2="3.8990016"
       id="linearGradient3071"
       xlink:href="#linearGradient3707-319-631-407-324-616-674-812-821-107-178-392-400-6-7"
       gradientUnits="userSpaceOnUse"
       gradientTransform="matrix(0.65627449,0,0,0.6892852,1.2531134,-0.21112011)" />
    <linearGradient
       id="linearGradient3707-319-631-407-324-616-674-812-821-107-178-392-400-6-7">
      <stop
         id="stop5440-4-4"
         style="stop-color:#272727;stop-opacity:1"
         offset="0" />
      <stop
         id="stop5442-3-5"
         style="stop-color:#454545;stop-opacity:1"
         offset="1" />
    </linearGradient>
    <linearGradient
       x1="23.99999"
       y1="4.999989"
       x2="23.99999"
       y2="43"
       id="linearGradient3075"
       xlink:href="#linearGradient3731"
       gradientUnits="userSpaceOnUse"
       gradientTransform="matrix(0.56756757,0,0,0.67567567,2.3783793,-0.21620881)" />
    <linearGradient
       id="linearGradient3731">
      <stop
         id="stop3733"
         style="stop-color:#ffffff;stop-opacity:1"
         offset="0" />
      <stop
         id="stop3735"
         style="stop-color:#ffffff;stop-opacity:0.23529412"
         offset="0.02706478" />
      <stop
         id="stop3737"
         style="stop-color:#ffffff;stop-opacity:0.15686275"
         offset="0.97377032" />
      <stop
         id="stop3739"
         style="stop-color:#ffffff;stop-opacity:0.39215687"
         offset="1" />
    </linearGradient>
    <radialGradient
       cx="7.4956832"
       cy="8.4497671"
       r="19.99999"
       fx="7.4956832"
       fy="8.4497671"
       id="radialGradient3078"
       xlink:href="#linearGradient2867-449-88-871-390-598-476-591-434-148-57-177-641-289-620-227-114-444-680-744-8"
       gradientUnits="userSpaceOnUse"
       gradientTransform="matrix(1.165708e-8,1.6179162,-1.483354,-2.9808191e-8,28.734063,-9.2240923)" />
    <linearGradient
       id="linearGradient2867-449-88-871-390-598-476-591-434-148-57-177-641-289-620-227-114-444-680-744-8">
      <stop
         id="stop5430-8"
         style="stop-color:#5f5f5f;stop-opacity:1"
         offset="0" />
      <stop
         id="stop5432-3"
         style="stop-color:#4f4f4f;stop-opacity:1"
         offset="0.26238" />
      <stop
         id="stop5434-1"
         style="stop-color:#3b3b3b;stop-opacity:1"
         offset="0.704952" />
      <stop
         id="stop5436-8"
         style="stop-color:#2b2b2b;stop-opacity:1"
         offset="1" />
    </linearGradient>
    <linearGradient
       x1="24"
       y1="44"
       x2="24"
       y2="3.8990016"
       id="linearGradient3080"
       xlink:href="#linearGradient3707-319-631-407-324-616-674-812-821-107-178-392-400-6"
       gradientUnits="userSpaceOnUse"
       gradientTransform="matrix(0.60000001,0,0,0.69230771,1.8000008,-0.61538474)" />
    <linearGradient
       id="linearGradient3707-319-631-407-324-616-674-812-821-107-178-392-400-6">
      <stop
         id="stop5440-4"
         style="stop-color:#272727;stop-opacity:1"
         offset="0" />
      <stop
         id="stop5442-3"
         style="stop-color:#454545;stop-opacity:1"
         offset="1" />
    </linearGradient>
    <radialGradient
       cx="24.501682"
       cy="6.6475959"
       r="17.49832"
       fx="24.501682"
       fy="6.6475959"
       id="radialGradient3083"
       xlink:href="#linearGradient8967"
       gradientUnits="userSpaceOnUse"
       gradientTransform="matrix(0,1.8069473,-2.0594306,0,30.190262,-41.983847)" />
    <linearGradient
       id="linearGradient8967">
      <stop
         id="stop8969"
         style="stop-color:#ddcfbd;stop-opacity:1"
         offset="0" />
      <stop
         id="stop8971"
         style="stop-color:#856f50;stop-opacity:1"
         offset="1" />
    </linearGradient>
    <linearGradient
       x1="32.901409"
       y1="4.6481781"
       x2="32.901409"
       y2="61.481758"
       id="linearGradient3085"
       xlink:href="#linearGradient3319"
       gradientUnits="userSpaceOnUse"
       gradientTransform="matrix(0.45330736,0,0,0.48530928,1.9941631,0.11705426)" />
    <linearGradient
       id="linearGradient3319">
      <stop
         id="stop3321"
         style="stop-color:#a79071;stop-opacity:1"
         offset="0" />
      <stop
         id="stop3323"
         style="stop-color:#6f5d45;stop-opacity:1"
         offset="1" />
    </linearGradient>
    <linearGradient
       x1="10.654308"
       y1="1"
       x2="10.654308"
       y2="3"
       id="linearGradient3088"
       xlink:href="#linearGradient2346"
       gradientUnits="userSpaceOnUse"
       gradientTransform="matrix(0.60000001,0,0,0.75000464,0.6000147,0.12497942)" />
    <linearGradient
       id="linearGradient2346">
      <stop
         id="stop2348"
         style="stop-color:#eeeeee;stop-opacity:1"
         offset="0" />
      <stop
         id="stop2350"
         style="stop-color:#d9d9da;stop-opacity:1"
         offset="1" />
    </linearGradient>
    <linearGradient
       x1="24"
       y1="44"
       x2="24"
       y2="3.8990016"
       id="linearGradient3090"
       xlink:href="#linearGradient3707-319-631-407-324-616-674-812-821-107-178-392-400-6-2"
       gradientUnits="userSpaceOnUse"
       gradientTransform="matrix(0.60000001,0,0,0.07692307,1.8001714,0.15384638)" />
    <linearGradient
       id="linearGradient3707-319-631-407-324-616-674-812-821-107-178-392-400-6-2">
      <stop
         id="stop5440-4-8"
         style="stop-color:#272727;stop-opacity:1"
         offset="0" />
      <stop
         id="stop5442-3-8"
         style="stop-color:#454545;stop-opacity:1"
         offset="1" />
    </linearGradient>
    <linearGradient
       id="linearGradient3101">
      <stop
         id="stop3103"
         style="stop-color:#9b876c;stop-opacity:1"
         offset="0" />
      <stop
         id="stop3105"
         style="stop-color:#9b876c;stop-opacity:1"
         offset="0.95429963" />
      <stop
         id="stop3107"
         style="stop-color:#c2c2c2;stop-opacity:1"
         offset="0.95717829" />
      <stop
         id="stop3109"
         style="stop-color:#c2c2c2;stop-opacity:1"
         offset="1" />
    </linearGradient>
    <linearGradient
       x1="24.62738"
       y1="3.1234391"
       x2="24.640038"
       y2="4.882647"
       id="linearGradient3190"
       xlink:href="#linearGradient2346"
       gradientUnits="userSpaceOnUse"
       gradientTransform="matrix(0.69041563,0,0,1.0164576,0.2501926,-2.4916513)" />
    <linearGradient
       x1="5.2122574"
       y1="0.065301567"
       x2="54.887218"
       y2="0.065301567"
       id="linearGradient3192"
       xlink:href="#linearGradient3101"
       gradientUnits="userSpaceOnUse"
       gradientTransform="matrix(0.49253714,0,0,0.4937733,0.8902917,0.14413039)" />
    <radialGradient
       cx="4.9929786"
       cy="43.5"
       r="2.5"
       fx="4.9929786"
       fy="43.5"
       id="radialGradient2976"
       xlink:href="#linearGradient3688-166-749"
       gradientUnits="userSpaceOnUse"
       gradientTransform="matrix(2.003784,0,0,1.4,27.98813,-17.4)" />
    <linearGradient
       id="linearGradient3688-166-749">
      <stop
         id="stop2883"
         style="stop-color:#181818;stop-opacity:1"
         offset="0" />
      <stop
         id="stop2885"
         style="stop-color:#181818;stop-opacity:0"
         offset="1" />
    </linearGradient>
    <radialGradient
       cx="4.9929786"
       cy="43.5"
       r="2.5"
       fx="4.9929786"
       fy="43.5"
       id="radialGradient2978"
       xlink:href="#linearGradient3688-464-309"
       gradientUnits="userSpaceOnUse"
       gradientTransform="matrix(2.003784,0,0,1.4,-20.01187,-104.4)" />
    <linearGradient
       id="linearGradient3688-464-309">
      <stop
         id="stop2889"
         style="stop-color:#181818;stop-opacity:1"
         offset="0" />
      <stop
         id="stop2891"
         style="stop-color:#181818;stop-opacity:0"
         offset="1" />
    </linearGradient>
    <linearGradient
       x1="25.058096"
       y1="47.027729"
       x2="25.058096"
       y2="39.999443"
       id="linearGradient2980"
       xlink:href="#linearGradient3702-501-757"
       gradientUnits="userSpaceOnUse" />
    <linearGradient
       id="linearGradient3702-501-757">
      <stop
         id="stop2895"
         style="stop-color:#181818;stop-opacity:0"
         offset="0" />
      <stop
         id="stop2897"
         style="stop-color:#181818;stop-opacity:1"
         offset="0.5" />
      <stop
         id="stop2899"
         style="stop-color:#181818;stop-opacity:0"
         offset="1" />
    </linearGradient>
    <radialGradient
       gradientTransform="matrix(2.003784,0,0,1.4,27.98813,-17.4)"
       gradientUnits="userSpaceOnUse"
       xlink:href="#linearGradient3688-166-749"
       id="radialGradient3493"
       fy="43.5"
       fx="4.9929786"
       r="2.5"
       cy="43.5"
       cx="4.9929786" />
    <radialGradient
       gradientTransform="matrix(2.003784,0,0,1.4,-20.01187,-104.4)"
       gradientUnits="userSpaceOnUse"
       xlink:href="#linearGradient3688-166-749"
       id="radialGradient3495"
       fy="43.5"
       fx="4.9929786"
       r="2.5"
       cy="43.5"
       cx="4.9929786" />
    <radialGradient
       gradientTransform="matrix(0,6.5752286,-8.07228,0,96.951918,-56.111442)"
       gradientUnits="userSpaceOnUse"
       xlink:href="#linearGradient4371"
       id="radialGradient4388"
       fy="9.9571075"
       fx="6.2001843"
       r="12.671875"
       cy="9.9571075"
       cx="6.7304144" />
    <linearGradient
       id="linearGradient2867-449-88-871-390-598-476-591-434-148-57-177-8-3-3-6-4-8-8-8-5">
      <stop
         offset="0"
         style="stop-color:#95a3ab;stop-opacity:1"
         id="stop3750-1-0-7-6-6-1-3-9-3" />
      <stop
         offset="0.26238"
         style="stop-color:#667885;stop-opacity:1"
         id="stop3752-3-7-4-0-32-8-923-0-7" />
      <stop
         offset="0.704952"
         style="stop-color:#485a6c;stop-opacity:1"
         id="stop3754-1-8-5-2-7-6-7-1-9" />
      <stop
         offset="1"
         style="stop-color:#273445;stop-opacity:1"
         id="stop3756-1-6-2-6-6-1-96-6-0" />
    </linearGradient>
    <linearGradient
       gradientTransform="matrix(0.67567568,0,0,0.67567568,-0.21621855,-0.2162061)"
       gradientUnits="userSpaceOnUse"
       xlink:href="#linearGradient3924-0"
       id="linearGradient3483"
       y2="41.679485"
       x2="38.546436"
       y1="6.3738203"
       x1="38.546436" />
    <linearGradient
       id="linearGradient3924-0">
      <stop
         offset="0"
         style="stop-color:#ffffff;stop-opacity:1"
         id="stop3926-6" />
      <stop
         offset="0.03798588"
         style="stop-color:#ffffff;stop-opacity:0.23529412"
         id="stop3928-3" />
      <stop
         offset="0.96200818"
         style="stop-color:#ffffff;stop-opacity:0.15686275"
         id="stop3930-2" />
      <stop
         offset="1"
         style="stop-color:#ffffff;stop-opacity:0.39215687"
         id="stop3932-62" />
    </linearGradient>
    <radialGradient
       gradientTransform="matrix(0,6.5752286,-8.07228,0,94.451918,-58.611442)"
       gradientUnits="userSpaceOnUse"
       xlink:href="#linearGradient2867-449-88-871-390-598-476-591-434-148-57-177-8-3-3-6-4-8-8-8-5"
       id="radialGradient4388-3"
       fy="9.9571075"
       fx="6.2001843"
       r="12.671875"
       cy="9.9571075"
       cx="6.7304144" />
    <linearGradient
       gradientTransform="matrix(0.67567568,0,0,0.67567568,-3.2162185,-3.2162061)"
       gradientUnits="userSpaceOnUse"
       xlink:href="#linearGradient3924-0"
       id="linearGradient3483-6"
       y2="41.679485"
       x2="38.546436"
       y1="6.3738203"
       x1="38.546436" />
    <linearGradient
       inkscape:collect="always"
       xlink:href="#linearGradient3924-0"
       id="linearGradient4331"
       gradientUnits="userSpaceOnUse"
       gradientTransform="matrix(0.67567568,0,0,0.67567568,-0.21621855,-0.2162061)"
       x1="24.000004"
       y1="3.279985"
       x2="24.000004"
       y2="41.759983" />
    <radialGradient
       cx="4.9929786"
       cy="43.5"
       r="2.5"
       fx="4.9929786"
       fy="43.5"
       id="radialGradient2873-966-168"
       xlink:href="#linearGradient3688-166-749"
       gradientUnits="userSpaceOnUse"
       gradientTransform="matrix(2.003784,0,0,1.4,27.98813,-17.4)" />
    <radialGradient
       cx="4.9929786"
       cy="43.5"
       r="2.5"
       fx="4.9929786"
       fy="43.5"
       id="radialGradient2875-742-326"
       xlink:href="#linearGradient3688-166-749"
       gradientUnits="userSpaceOnUse"
       gradientTransform="matrix(2.003784,0,0,1.4,-20.01187,-104.4)" />
    <radialGradient
       r="12.671875"
       fy="9.9571075"
       fx="6.2001843"
       cy="9.9571075"
       cx="6.7304144"
       gradientTransform="matrix(0,13.393984,-16.443533,0,196.90205,-114.89368)"
       gradientUnits="userSpaceOnUse"
       id="radialGradient4147"
       xlink:href="#linearGradient4371" />
    <linearGradient
       id="linearGradient4371">
      <stop
         offset="0"
         style="stop-color:#206a7c;stop-opacity:1"
         id="stop4373" />
      <stop
         offset="0.26238"
         style="stop-color:#073642;stop-opacity:1"
         id="stop4375" />
      <stop
         offset="0.704952"
         style="stop-color:#002b36;stop-opacity:1"
         id="stop4377" />
      <stop
         offset="1"
         style="stop-color:#00161c;stop-opacity:1"
         id="stop4379" />
    </linearGradient>
    <linearGradient
       y2="42.798512"
       x2="23.99999"
       y1="2.416503"
       x1="23.99999"
       gradientTransform="matrix(1.4324324,0,0,1.4362832,-2.3783747,-2.4707827)"
       gradientUnits="userSpaceOnUse"
       id="linearGradient3904"
       xlink:href="#linearGradient4270" />
    <linearGradient
       id="linearGradient4270">
      <stop
         id="stop4272"
         style="stop-color:#ffffff;stop-opacity:1"
         offset="0" />
      <stop
         id="stop4274"
         style="stop-color:#ffffff;stop-opacity:0.23529412"
         offset="0.0348749" />
      <stop
         id="stop4276"
         style="stop-color:#ffffff;stop-opacity:0.15686275"
         offset="0.96216321" />
      <stop
         id="stop4278"
         style="stop-color:#ffffff;stop-opacity:0.39215687"
         offset="1" />
    </linearGradient>
  </defs>
  <metadata
     id="metadata3199">
    <rdf:RDF>
      <cc:Work
         rdf:about="">
        <dc:format>image/svg+xml</dc:format>
        <dc:type
           rdf:resource="http://purl.org/dc/dcmitype/StillImage" />
        <dc:title />
      </cc:Work>
    </rdf:RDF>
  </metadata>
  <g
     id="g4431">
    <g
       id="g4259">
      <g
         style="display:inline"
         id="g2036"
         transform="matrix(0.64999974,0,0,0.3333336,0.39999974,15.33333)">
        <g
           style="opacity:0.4"
           id="g3712"
           transform="matrix(1.052632,0,0,1.285713,-1.263158,-13.42854)">
          <rect
             style="fill:url(#radialGradient2976);fill-opacity:1;stroke:none"
             id="rect2801"
             y="40"
             x="38"
             height="7"
             width="5" />
          <rect
             style="fill:url(#radialGradient2978);fill-opacity:1;stroke:none"
             id="rect3696"
             transform="scale(-1,-1)"
             y="-47"
             x="-10"
             height="7"
             width="5" />
          <rect
             style="fill:url(#linearGradient2980);fill-opacity:1;stroke:none"
             id="rect3700"
             y="40"
             x="10"
             height="7.0000005"
             width="28" />
        </g>
      </g>
      <rect
         style="color:#000000;clip-rule:nonzero;display:inline;overflow:visible;visibility:visible;opacity:0.9;isolation:auto;mix-blend-mode:normal;color-interpolation:sRGB;color-interpolation-filters:linearRGB;solid-color:#000000;solid-opacity:1;fill:url(#radialGradient4388);fill-opacity:1;fill-rule:nonzero;stroke:none;stroke-width:0.99999994;stroke-linecap:butt;stroke-linejoin:miter;stroke-miterlimit:4;stroke-dasharray:none;stroke-dashoffset:0;stroke-opacity:1;marker:none;color-rendering:auto;image-rendering:auto;shape-rendering:auto;text-rendering:auto;enable-background:accumulate"
         id="rect4212"
         y="0.5"
         x="4.5"
         ry="0.5"
         rx="0.5"
         height="29"
         width="23" />
      <rect
         style="color:#000000;clip-rule:nonzero;display:inline;overflow:visible;visibility:visible;opacity:0.3;isolation:auto;mix-blend-mode:normal;color-interpolation:sRGB;color-interpolation-filters:linearRGB;solid-color:#000000;solid-opacity:1;fill:none;fill-opacity:1;fill-rule:nonzero;stroke:url(#linearGradient4331);stroke-width:1;stroke-linecap:round;stroke-linejoin:round;stroke-miterlimit:4;stroke-dasharray:none;stroke-dashoffset:0;stroke-opacity:1;color-rendering:auto;image-rendering:auto;shape-rendering:auto;text-rendering:auto;enable-background:accumulate"
         id="rect6741-0"
         y="1.5146858"
         x="5.5234375"
         height="26.987141"
         width="20.975241"
         rx="0"
         ry="0" />
      <rect
         width="23"
         height="29"
         rx="0.5"
         ry="0.5"
         x="4.5"
         y="0.5"
         id="rect4208"
         style="display:inline;opacity:0.7;fill:none;fill-opacity:1;stroke:#0e141f;stroke-width:1;stroke-linecap:round;stroke-linejoin:round;stroke-miterlimit:0;stroke-dasharray:none;stroke-dashoffset:0;stroke-opacity:1" />
    </g>
    <g
       id="g4375">
      <path
         inkscape:connector-curvature="0"
         style="display:inline;opacity:1;fill:#657b83;fill-opacity:1;stroke:none"
         id="path3406"
         d="m 10.861243,23 1.214349,0 0,1 -1.214349,0 z M 12.317238,23 14,23 l 0,1 -1.682762,0 z M 8,23 l 2.619597,0 0,1 L 8,24 Z m 7.408515,-4 1.463354,0 0,1 -1.463354,0 z m 5.33801,0 L 24,19 l 0,1 -3.253475,0 z m -7.117345,0 1.571183,0 0,1 -1.571183,0 z m -3.461622,0 3.253469,0 0,1 -3.253469,0 z M 8,19 l 1.959406,0 0,1 L 8,20 Z M 21.644893,21 22,21 l 0,1 -0.355107,0 z m -1.702811,0 1.520188,0 0,1 -1.520188,0 z m -2.576618,0 2.259559,0 0,1 -2.259559,0 z m -1.926866,0 1.721831,0 0,1 -1.721831,0 z m -1.411545,0 1.072077,0 0,1 -1.072077,0 z m -1.254697,0 1.072075,0 0,1 -1.072075,0 z m -0.694569,0 0.556751,0 0,1 -0.556751,0 z m -1.433946,0 1.184102,0 0,1 -1.184102,0 z M 8,21 l 2.461212,0 0,1 L 8,22 Z M 9.285035,11 13,11 13,12 9.285035,12 Z M 8,11 l 1.020847,0 0,1 L 8,12 Z m 7.681271,-2 1.517229,0 0,1 -1.517229,0 z M 18.923731,9 21,9 l 0,1 -2.076269,0 z m -1.509424,0 1.293608,0 0,1 -1.293608,0 z m -3.57788,0 1.629029,0 0,1 -1.629029,0 z m -3.589067,0 3.373251,0 0,1 -3.373251,0 z M 8,9 l 2.031545,0 0,1 L 8,10 Z M 16.871151,7 19,7 19,8 16.871151,8 Z m -1.83386,0 1.622223,0 0,1 -1.622223,0 z m -1.221698,0 1.010055,0 0,1 -1.010055,0 z m -1.221693,0 1.010055,0 0,1 -1.010055,0 z m -0.736183,0 0.524541,0 0,1 -0.524541,0 z m -1.327244,0 1.1156,0 0,1 -1.1156,0 z M 8,7 l 2.318828,0 0,1 L 8,8 Z M 21.245171,5 22,5 22,6 21.245171,6 Z m -2.675029,0 2.465985,0 0,1 -2.465985,0 z m -3.454788,0 3.24575,0 0,1 -3.24575,0 z m -1.462058,0 1.253014,0 0,1 -1.253014,0 z m -0.768939,0 0.559895,0 0,1 -0.559895,0 z m -1.483717,0 1.27468,0 0,1 -1.27468,0 z m -1.657002,0 1.447966,0 0,1 -1.447966,0 z M 8,5 l 1.5346,0 0,1 L 8,6 Z m 7.88059,10 2.904735,0 0,1 -2.904735,0 z m -1.459009,0 1.233101,0 0,1 -1.233101,0 z m -3.313834,0 3.087926,0 0,1 -3.087926,0 z M 8,15 l 2.88184,0 0,1 L 8,16 Z m 7.03866,2 1.629256,0 0,1 -1.629256,0 z m -1.335653,0 1.014437,0 0,1 -1.014437,0 z m -1.187238,0 1.014435,0 0,1 -1.014435,0 z m -0.657225,0 0.526817,0 0,1 -0.526817,0 z m -1.35685,0 1.120439,0 0,1 -1.120439,0 z M 8,17 l 2.328884,0 0,1 L 8,18 Z M 18.540849,13 21,13 l 0,1 -2.459151,0 z m -3.445214,0 3.236755,0 0,1 -3.236755,0 z m -1.458006,0 1.249541,0 0,1 -1.249541,0 z m -0.766808,0 0.558343,0 0,1 -0.558343,0 z m -1.479606,0 1.271148,0 0,1 -1.271148,0 z m -1.652409,0 1.443953,0 0,1 -1.443953,0 z M 8,13 l 1.530347,0 0,1 L 8,14 Z" />
      <path
         d="m 10.861243,23 1.214349,0 0,1 -1.214349,0 z m 4.820028,-14 1.517229,0 0,1 -1.517229,0 z M 8,5 l 1.5346,0 0,1 L 8,6 Z m 7.88059,10 2.904735,0 0,1 -2.904735,0 z m -2.177583,2 1.014437,0 0,1 -1.014437,0 z m -3.964201,-4 1.443953,0 0,1 -1.443953,0 z"
         id="path4369"
         style="display:inline;opacity:1;fill:#859900;fill-opacity:1;stroke:none"
         inkscape:connector-curvature="0"
         sodipodi:nodetypes="cccccccccccccccccccccccccccccc" />
      <path
         d="M 16.871151,7 19,7 19,8 16.871151,8 Z m -3.217855,-2 1.253014,0 0,1 -1.253014,0 z m 1.385364,12 1.629256,0 0,1 -1.629256,0 z M 18.540849,13 21,13 l 0,1 -2.459151,0 z"
         id="path4371"
         style="display:inline;opacity:1;fill:#268bd2;fill-opacity:1;stroke:none"
         inkscape:connector-curvature="0"
         sodipodi:nodetypes="cccccccccccccccccccc" />
      <path
         d="m 15.438598,21 1.721831,0 0,1 -1.721831,0 z M 8,21 l 2.461212,0 0,1 L 8,22 Z m 0,-14 2.318828,0 0,1 L 8,8 Z m 6.421581,8 1.233101,0 0,1 -1.233101,0 z M 8,15 l 2.88184,0 0,1 L 8,16 Z"
         id="path4373"
         style="display:inline;opacity:1;fill:#d33682;fill-opacity:1;stroke:none"
         inkscape:connector-curvature="0"
         sodipodi:nodetypes="ccccccccccccccccccccccccc" />
    </g>
    <g
       transform="scale(0.5,0.5)"
       id="g4409">
      <g
         id="g4334">
        <path
           sodipodi:nodetypes="cssssc"
           inkscape:connector-curvature="0"
           id="path4328"
           d="m 34,43 0.5,0 c 4.432,0 7.5,-3.568 7.5,-8 l 0,-4 c 0,-4.432 -3.068,-8 -7.5,-8 L 34,23"
           style="color:#000000;clip-rule:nonzero;display:inline;overflow:visible;visibility:visible;opacity:0.15;isolation:auto;mix-blend-mode:normal;color-interpolation:sRGB;color-interpolation-filters:linearRGB;solid-color:#000000;solid-opacity:1;fill:none;fill-opacity:1;fill-rule:nonzero;stroke:#000000;stroke-width:6;stroke-linecap:butt;stroke-linejoin:miter;stroke-miterlimit:4;stroke-dasharray:none;stroke-dashoffset:0;stroke-opacity:1;marker:none;color-rendering:auto;image-rendering:auto;shape-rendering:auto;text-rendering:auto;enable-background:accumulate" />
        <path
           sodipodi:nodetypes="cccc"
           inkscape:connector-curvature="0"
           id="path4330"
           d="M 29.00195,23 22,23 l 0,20 6.99805,0"
           style="color:#000000;clip-rule:nonzero;display:inline;overflow:visible;visibility:visible;opacity:0.15;isolation:auto;mix-blend-mode:normal;color-interpolation:sRGB;color-interpolation-filters:linearRGB;solid-color:#000000;solid-opacity:1;fill:none;fill-opacity:1;fill-rule:nonzero;stroke:#000000;stroke-width:6;stroke-linecap:butt;stroke-linejoin:miter;stroke-miterlimit:4;stroke-dasharray:none;stroke-dashoffset:0;stroke-opacity:1;marker:none;color-rendering:auto;image-rendering:auto;shape-rendering:auto;text-rendering:auto;enable-background:accumulate" />
      </g>
      <g
         transform="translate(1.052734,2.720703)"
         id="g4320"
         style="opacity:0.3;stroke:#000000;stroke-opacity:1">
        <path
           style="color:#000000;clip-rule:nonzero;display:inline;overflow:visible;visibility:visible;opacity:1;isolation:auto;mix-blend-mode:normal;color-interpolation:sRGB;color-interpolation-filters:linearRGB;solid-color:#000000;solid-opacity:1;fill:none;fill-opacity:1;fill-rule:nonzero;stroke:#000000;stroke-width:4;stroke-linecap:butt;stroke-linejoin:miter;stroke-miterlimit:4;stroke-dasharray:none;stroke-dashoffset:0;stroke-opacity:1;marker:none;color-rendering:auto;image-rendering:auto;shape-rendering:auto;text-rendering:auto;enable-background:accumulate"
           d="m 32.947266,39.279297 0.473633,0 c 4.432,0 7.526367,-3.568 7.526367,-8 l 0,-4 c 0,-4.432 -3.094367,-8 -7.526367,-8 l -0.473633,0"
           id="path4322"
           inkscape:connector-curvature="0"
           sodipodi:nodetypes="cssssc" />
        <path
           style="color:#000000;clip-rule:nonzero;display:inline;overflow:visible;visibility:visible;opacity:1;isolation:auto;mix-blend-mode:normal;color-interpolation:sRGB;color-interpolation-filters:linearRGB;solid-color:#000000;solid-opacity:1;fill:none;fill-opacity:1;fill-rule:nonzero;stroke:#000000;stroke-width:4;stroke-linecap:butt;stroke-linejoin:miter;stroke-miterlimit:4;stroke-dasharray:none;stroke-dashoffset:0;stroke-opacity:1;marker:none;color-rendering:auto;image-rendering:auto;shape-rendering:auto;text-rendering:auto;enable-background:accumulate"
           d="m 26.949216,19.279297 -6.00195,0 0,20 5.99805,0"
           id="path4324"
           inkscape:connector-curvature="0"
           sodipodi:nodetypes="cccc" />
      </g>
      <g
         id="g4316"
         transform="translate(1.052734,1.720703)">
        <path
           sodipodi:nodetypes="cssssc"
           inkscape:connector-curvature="0"
           id="rect4308"
           d="m 32.947266,38.279297 0.473633,0 c 4.432,0 7.526367,-3.568 7.526367,-8 l 0,-4 c 0,-4.432 -3.094367,-8 -7.526367,-8 l -0.473633,0"
           style="color:#000000;clip-rule:nonzero;display:inline;overflow:visible;visibility:visible;opacity:1;isolation:auto;mix-blend-mode:normal;color-interpolation:sRGB;color-interpolation-filters:linearRGB;solid-color:#000000;solid-opacity:1;fill:none;fill-opacity:1;fill-rule:nonzero;stroke:#ffffff;stroke-width:4;stroke-linecap:butt;stroke-linejoin:miter;stroke-miterlimit:4;stroke-dasharray:none;stroke-dashoffset:0;stroke-opacity:1;marker:none;color-rendering:auto;image-rendering:auto;shape-rendering:auto;text-rendering:auto;enable-background:accumulate" />
        <path
           sodipodi:nodetypes="cccc"
           inkscape:connector-curvature="0"
           id="rect4306"
           d="m 26.949216,18.279297 -6.00195,0 0,20 5.99805,0"
           style="color:#000000;clip-rule:nonzero;display:inline;overflow:visible;visibility:visible;opacity:1;isolation:auto;mix-blend-mode:normal;color-interpolation:sRGB;color-interpolation-filters:linearRGB;solid-color:#000000;solid-opacity:1;fill:none;fill-opacity:1;fill-rule:nonzero;stroke:#ffffff;stroke-width:4;stroke-linecap:butt;stroke-linejoin:miter;stroke-miterlimit:4;stroke-dasharray:none;stroke-dashoffset:0;stroke-opacity:1;marker:none;color-rendering:auto;image-rendering:auto;shape-rendering:auto;text-rendering:auto;enable-background:accumulate" />
      </g>
    </g>
  </g>
</svg>
